<svg width="201" height="134" viewBox="0 0 201 134" fill="none" xmlns="http://www.w3.org/2000/svg">
  <path d="M46.7934 53.4646L151.202 52.7119L154.111 123.695L46.0015 122.691L46.7934 53.4646Z" fill="#8E83F1"/>
  <path d="M46.7932 53.4645L99.7972 10.5752L151.202 52.7118" fill="#8E83F1"/>
  <g opacity="0.3">
    <path opacity="0.3" d="M46.7932 53.4645L96.9763 12.8578C98.6189 11.5286 100.969 11.536 102.604 12.8756L151.202 52.7118" fill="black"/>
  </g>
  <g opacity="0.5">
    <path opacity="0.5" d="M151.202 52.7119L98.77 94.5976L46.7932 53.4646" fill="black"/>
  </g>
  <path d="M55.8512 60.3288C53.4524 58.4442 52.0451 55.5677 52.0293 52.5171L51.9481 36.7864C51.92 31.339 56.257 26.8713 61.7028 26.7377L133.402 24.9795C138.902 24.8447 143.478 29.1779 143.643 34.677L144.19 52.9441C144.285 56.1033 142.88 59.1214 140.403 61.0835L104.954 89.1524C101.327 92.0237 96.205 92.0334 92.5678 89.1758L55.8512 60.3288Z" fill="#554F91"/>
  <path d="M100.048 83.1342C96.84 83.1427 93.6664 82.4721 90.7359 81.1667C87.8054 79.8613 85.1843 77.9506 83.0449 75.5601C80.9054 73.1696 79.296 70.3534 78.3224 67.2966C77.3488 64.2398 77.0331 61.0116 77.3959 57.8241C78.0749 51.8288 81.1076 46.3488 85.827 42.5896C90.5464 38.8305 96.5658 37.1 102.561 37.779C108.556 38.4579 114.036 41.4907 117.795 46.2101C121.555 50.9295 123.285 56.9489 122.606 62.9441C121.98 68.4919 119.336 73.6156 115.176 77.339C111.016 81.0624 105.631 83.1251 100.048 83.1342V83.1342ZM99.9853 38.4415C95.7502 38.4461 91.6068 39.6755 88.0545 41.9816C84.5023 44.2876 81.6929 47.5719 79.965 51.4385C78.237 55.3051 77.6644 59.589 78.316 63.7737C78.9676 67.9584 80.8157 71.8653 83.6375 75.0235C86.4592 78.1817 90.1342 80.4562 94.2195 81.5731C98.3047 82.6899 102.626 82.6013 106.662 81.3179C110.698 80.0345 114.276 77.6111 116.966 74.3399C119.656 71.0687 121.343 67.0893 121.822 62.8814V62.8814C122.149 60.0145 121.908 57.1111 121.113 54.3374C120.317 51.5637 118.983 48.974 117.185 46.7165C115.388 44.459 113.163 42.578 110.639 41.181C108.114 39.7839 105.338 38.8983 102.471 38.5748C101.646 38.468 100.817 38.4078 99.9853 38.3945V38.4415Z" fill="white"/>
  <path d="M87.0192 65.458C85.6604 64.4069 85.4358 62.4422 86.5223 61.1116V61.1116C87.5444 59.8597 89.3651 59.6211 90.6753 60.5673L92.8302 62.1237C95.316 63.919 98.7645 63.5002 100.748 61.1622L109.784 50.5141C110.828 49.2833 112.679 49.1482 113.891 50.2142V50.2142C115.082 51.2621 115.204 53.0753 114.164 54.2736L102.583 67.6188C99.7043 70.9355 94.7371 71.428 91.2635 68.741L87.0192 65.458Z" fill="white"/>
  <circle cx="32.5" cy="38.5" r="3.5" fill="#64BEC8"/>
  <circle cx="195.5" cy="79.5" r="3.5" fill="#FF6A2C"/>
  <circle cx="148.5" cy="3.5" r="3.5" fill="#EF233C"/>
  <circle cx="32.5" cy="113.5" r="3.5" fill="#FFB61B"/>
  <circle cx="199.5" cy="28.5" r="1.5" fill="#64BEC8"/>
  <circle cx="80.5" cy="12.5" r="1.5" fill="#FFB61B"/>
  <circle cx="113.5" cy="132.5" r="1.5" fill="#EF233C"/>
  <circle cx="1.5" cy="75.5" r="1.5" fill="#C4C4C4"/>
</svg>
