<svg width="218" height="133" viewBox="0 0 218 133" fill="none" xmlns="http://www.w3.org/2000/svg">
  <path d="M16 58.7782L176.141 81.8332L197.63 103.518L16 58.7782Z" fill="#8E83F1"/>
  <path opacity="0.6" d="M16 58.7782L176.141 81.8332L197.63 103.518L16 58.7782Z" fill="white"/>
  <path d="M16 58.7782L176.141 81.8332L168.709 113.191L16 58.7782Z" fill="#8E83F1"/>
  <path opacity="0.2" d="M16 58.7782L176.141 81.8332L168.709 113.191L16 58.7782Z" fill="black"/>
  <path d="M165.422 22.4748L174.715 66.0277C174.957 67.165 174.738 68.3517 174.106 69.3275C173.474 70.3034 172.48 70.9886 171.343 71.233L88.3962 88.9351C87.2591 89.175 86.0733 88.9549 85.0979 88.3231C84.1226 87.6913 83.4369 86.6991 83.1909 85.5633L73.8903 42.0104C73.6506 40.8723 73.8716 39.6856 74.5049 38.71C75.1381 37.7345 76.1321 37.0495 77.2691 36.8051L160.216 19.1029C161.355 18.8633 162.541 19.0843 163.517 19.7175C164.492 20.3508 165.177 21.3447 165.422 22.4818V22.4748Z" fill="#8E83F1"/>
  <path opacity="0.4" d="M165.422 22.4748L174.715 66.0277C174.957 67.165 174.738 68.3517 174.106 69.3275C173.474 70.3034 172.48 70.9886 171.343 71.233L88.3962 88.9351C87.2591 89.175 86.0733 88.9549 85.0979 88.3231C84.1226 87.6913 83.4369 86.6991 83.1909 85.5633L73.8903 42.0104C73.6506 40.8723 73.8716 39.6856 74.5049 38.71C75.1381 37.7345 76.1321 37.0495 77.2691 36.8051L160.216 19.1029C161.355 18.8633 162.541 19.0843 163.517 19.7175C164.492 20.3508 165.177 21.3447 165.422 22.4818V22.4748Z" fill="black"/>
  <path d="M163.378 19.6227L135.665 53.6432C133.095 56.7974 129.525 58.9797 125.546 59.8291C121.567 60.6786 117.417 60.1443 113.783 58.3146L74.5928 38.5753C75.2268 37.6645 76.1837 37.0291 77.2692 36.798L160.216 19.0959C161.299 18.8655 162.428 19.0538 163.378 19.6227Z" fill="#8E83F1"/>
  <path d="M16 58.7782L148.085 90.1714L168.709 113.191L16 58.7782Z" fill="#8E83F1"/>
  <path opacity="0.6" d="M16 58.7782L148.085 90.1714L168.709 113.191L16 58.7782Z" fill="white"/>
  <path d="M64.1815 89.0372L63.8264 89.6433L78.5252 98.2532L78.8802 97.6471L64.1815 89.0372Z" fill="#8E83F1"/>
  <path d="M85.3698 101.443L85.0148 102.049L90.3003 105.145L90.6553 104.539L85.3698 101.443Z" fill="#8E83F1"/>
  <path d="M16 58.7782L148.085 90.1714L122.41 121.115L16 58.7782Z" fill="#8E83F1"/>
  <path d="M192.67 132.327C192.492 132.327 192.316 132.294 192.151 132.228L170.641 123.714C170.297 123.576 170.022 123.307 169.875 122.966C169.729 122.625 169.723 122.24 169.859 121.895C169.996 121.55 170.263 121.273 170.603 121.124C170.943 120.975 171.328 120.967 171.674 121.101L193.19 129.615C193.495 129.735 193.747 129.958 193.905 130.245C194.063 130.532 194.115 130.865 194.054 131.186C193.992 131.508 193.82 131.797 193.568 132.006C193.315 132.214 192.998 132.327 192.67 132.327Z" fill="#8E83F1"/>
  <path opacity="0.3" d="M192.67 132.327C192.492 132.327 192.316 132.294 192.151 132.228L170.641 123.714C170.297 123.576 170.022 123.307 169.875 122.966C169.729 122.625 169.723 122.24 169.859 121.895C169.996 121.55 170.263 121.273 170.603 121.124C170.943 120.975 171.328 120.967 171.674 121.101L193.19 129.615C193.495 129.735 193.747 129.958 193.905 130.245C194.063 130.532 194.115 130.865 194.054 131.186C193.992 131.508 193.82 131.797 193.568 132.006C193.315 132.214 192.998 132.327 192.67 132.327Z" fill="black"/>
  <path d="M191.399 119.991C191.223 119.99 191.048 119.954 190.886 119.886L179.33 115.285C179.158 115.218 179 115.117 178.866 114.989C178.732 114.861 178.625 114.707 178.551 114.538C178.477 114.368 178.437 114.185 178.433 114C178.43 113.815 178.463 113.631 178.532 113.458C178.6 113.286 178.701 113.129 178.83 112.996C178.959 112.863 179.113 112.757 179.284 112.684C179.454 112.611 179.637 112.572 179.822 112.57C180.007 112.568 180.191 112.602 180.363 112.671L191.919 117.252C192.265 117.388 192.543 117.656 192.692 117.997C192.841 118.338 192.848 118.724 192.712 119.071C192.614 119.34 192.435 119.572 192.2 119.737C191.965 119.901 191.686 119.99 191.399 119.991Z" fill="#8E83F1"/>
  <path opacity="0.5" d="M191.399 119.991C191.223 119.99 191.048 119.954 190.886 119.886L179.33 115.285C179.158 115.218 179 115.117 178.866 114.989C178.732 114.861 178.625 114.707 178.551 114.538C178.477 114.368 178.437 114.185 178.433 114C178.43 113.815 178.463 113.631 178.532 113.458C178.6 113.286 178.701 113.129 178.83 112.996C178.959 112.863 179.113 112.757 179.284 112.684C179.454 112.611 179.637 112.572 179.822 112.57C180.007 112.568 180.191 112.602 180.363 112.671L191.919 117.252C192.265 117.388 192.543 117.656 192.692 117.997C192.841 118.338 192.848 118.724 192.712 119.071C192.614 119.34 192.435 119.572 192.2 119.737C191.965 119.901 191.686 119.99 191.399 119.991Z" fill="white"/>
  <path d="M167.241 132.144C167.066 132.142 166.892 132.109 166.728 132.046L145.746 123.714C145.573 123.647 145.415 123.547 145.281 123.419C145.148 123.291 145.04 123.137 144.966 122.967C144.892 122.798 144.852 122.615 144.849 122.43C144.845 122.244 144.879 122.06 144.947 121.888C145.015 121.716 145.116 121.559 145.245 121.426C145.374 121.293 145.529 121.187 145.699 121.113C145.869 121.04 146.052 121.002 146.237 120.999C146.423 120.997 146.606 121.032 146.778 121.101L167.761 129.404C168.065 129.525 168.318 129.747 168.476 130.034C168.633 130.321 168.686 130.654 168.624 130.975C168.563 131.297 168.391 131.587 168.138 131.795C167.886 132.003 167.568 132.117 167.241 132.116V132.144Z" fill="#8E83F1"/>
  <path opacity="0.3" d="M167.241 132.144C167.066 132.142 166.892 132.109 166.728 132.046L145.746 123.714C145.573 123.647 145.415 123.547 145.281 123.419C145.148 123.291 145.04 123.137 144.966 122.967C144.892 122.798 144.852 122.615 144.849 122.43C144.845 122.244 144.879 122.06 144.947 121.888C145.015 121.716 145.116 121.559 145.245 121.426C145.374 121.293 145.529 121.187 145.699 121.113C145.869 121.04 146.052 121.002 146.237 120.999C146.423 120.997 146.606 121.032 146.778 121.101L167.761 129.404C168.065 129.525 168.318 129.747 168.476 130.034C168.633 130.321 168.686 130.654 168.624 130.975C168.563 131.297 168.391 131.587 168.138 131.795C167.886 132.003 167.568 132.117 167.241 132.116V132.144Z" fill="black"/>
  <circle cx="32.5" cy="38.5" r="3.5" fill="#64BEC8"/>
  <circle cx="214.5" cy="75.5" r="3.5" fill="#FF6A2C"/>
  <circle cx="148.5" cy="3.5" r="3.5" fill="#EF233C"/>
  <circle cx="32.5" cy="113.5" r="3.5" fill="#FFB61B"/>
  <circle cx="199.5" cy="28.5" r="1.5" fill="#64BEC8"/>
  <circle cx="80.5" cy="12.5" r="1.5" fill="#FFB61B"/>
  <circle cx="97.5" cy="125.5" r="1.5" fill="#EF233C"/>
  <circle cx="1.5" cy="75.5" r="1.5" fill="#C4C4C4"/>
</svg>
