<svg width="98" height="98" viewBox="0 0 98 98" fill="none" xmlns="http://www.w3.org/2000/svg">
<rect width="98" height="98" rx="15" fill="#E0FFFF"/>
<path fill-rule="evenodd" clip-rule="evenodd" d="M77.5837 44.4078C77.5837 45.5997 76.6147 46.5687 75.4228 46.5687H75.397V46.5172C74.1908 46.5172 73.2133 45.5425 73.2104 44.3363V44.3306V37.0647C73.2104 28.3382 68.437 23.5648 59.7362 23.5648H38.2987C29.5922 23.5648 24.7902 28.3668 24.7902 37.0647V58.5022C24.7902 67.1744 29.5922 71.9764 38.2901 71.9764H59.7276C68.4256 71.9764 73.2018 67.1744 73.2018 58.5022C73.2018 57.296 74.1794 56.3156 75.3885 56.3156C76.5975 56.3156 77.5751 57.296 77.5751 58.5022C77.5837 69.5211 70.7465 76.3582 59.7362 76.3582H38.2901C27.2541 76.3582 20.417 69.5211 20.417 58.5108V37.0733C20.417 26.0287 27.2541 19.1915 38.2901 19.1915H59.7276C70.6951 19.1915 77.5837 26.0287 77.5837 37.0647V44.4078ZM45.6092 51.5296L57.6599 39.476C58.4974 38.6385 59.8551 38.6385 60.6926 39.476C61.5301 40.3135 61.5301 41.6712 60.6926 42.5087L47.1241 56.0772C46.7211 56.4774 46.1751 56.7032 45.6092 56.7032C45.0375 56.7032 44.4944 56.4774 44.0914 56.0772L37.3086 49.2915C36.4711 48.454 36.4711 47.0963 37.3086 46.2588C38.1461 45.4213 39.5038 45.4213 40.3413 46.2588L45.6092 51.5296Z" fill="#28AFB0"/>
</svg>
